<svg xmlns="http://www.w3.org/2000/svg" width="800" height="800" style ="fill:none;"><style>.svg_txt{font-size:20px;}.glyph{stroke:#000000;stroke-width:1;stroke:1;}</style><rect x="0" y="0" width="40" height="40" style="fill:rgb(252, 252, 238);stroke:rgb(20,20,20);stroke-width:1;"/><text text-anchor="middle" x = "20" y = "36" fill="black"  font-weight="bold" font-size="36">A</text><rect x="40" y="0" width="400" height="40" style="fill:rgb(255,255,255);stroke:black;stroke-width:1;"/><text x = "60.0" y = "20.0" fill="black">Off White</text><rect x="440" y="0" width="80" height="40" style="fill:rgb(255,255,255);stroke:black;stroke-width:1;"/><text x = "460.0" y = "20.0" fill="black">318</text><rect x="520" y="0" width="80" height="40" style="fill:rgb(255,255,255);stroke:black;stroke-width:1;"/><text x = "540.0" y = "20.0" fill="black">746</text><rect x="0" y="40" width="40" height="40" style="fill:rgb(255, 253, 227);stroke:rgb(20,20,20);stroke-width:1;"/><text text-anchor="middle" x = "20" y = "76" fill="black"  font-weight="bold" font-size="36">B</text><rect x="40" y="40" width="400" height="40" style="fill:rgb(255,255,255);stroke:black;stroke-width:1;"/><text x = "60.0" y = "60.0" fill="black">Yellow Ultra Pale</text><rect x="440" y="40" width="80" height="40" style="fill:rgb(255,255,255);stroke:black;stroke-width:1;"/><text x = "460.0" y = "60.0" fill="black">548</text><rect x="520" y="40" width="80" height="40" style="fill:rgb(255,255,255);stroke:black;stroke-width:1;"/><text x = "540.0" y = "60.0" fill="black">3823</text><rect x="0" y="80" width="40" height="40" style="fill:rgb(255, 253, 227);stroke:rgb(20,20,20);stroke-width:1;"/><text text-anchor="middle" x = "20" y = "116" fill="black"  font-weight="bold" font-size="36">C</text><rect x="40" y="80" width="400" height="40" style="fill:rgb(255,255,255);stroke:black;stroke-width:1;"/><text x = "60.0" y = "100.0" fill="black">Yellow Ultra Pale</text><rect x="440" y="80" width="80" height="40" style="fill:rgb(255,255,255);stroke:black;stroke-width:1;"/><text x = "460.0" y = "100.0" fill="black">0</text><rect x="520" y="80" width="80" height="40" style="fill:rgb(255,255,255);stroke:black;stroke-width:1;"/><text x = "540.0" y = "100.0" fill="black">3823</text><rect x="0" y="120" width="40" height="40" style="fill:rgb(255, 238, 227);stroke:rgb(20,20,20);stroke-width:1;"/><text text-anchor="middle" x = "20" y = "156" fill="black"  font-weight="bold" font-size="36">D</text><rect x="40" y="120" width="400" height="40" style="fill:rgb(255,255,255);stroke:black;stroke-width:1;"/><text x = "60.0" y = "140.0" fill="black">Tawny Vy Light</text><rect x="440" y="120" width="80" height="40" style="fill:rgb(255,255,255);stroke:black;stroke-width:1;"/><text x = "460.0" y = "140.0" fill="black">409</text><rect x="520" y="120" width="80" height="40" style="fill:rgb(255,255,255);stroke:black;stroke-width:1;"/><text x = "540.0" y = "140.0" fill="black">3770</text><rect x="0" y="160" width="40" height="40" style="fill:rgb(254, 231, 218);stroke:rgb(20,20,20);stroke-width:1;"/><text text-anchor="middle" x = "20" y = "196" fill="black"  font-weight="bold" font-size="36">E</text><rect x="40" y="160" width="400" height="40" style="fill:rgb(255,255,255);stroke:black;stroke-width:1;"/><text x = "60.0" y = "180.0" fill="black">Peach Very Light</text><rect x="440" y="160" width="80" height="40" style="fill:rgb(255,255,255);stroke:black;stroke-width:1;"/><text x = "460.0" y = "180.0" fill="black">32</text><rect x="520" y="160" width="80" height="40" style="fill:rgb(255,255,255);stroke:black;stroke-width:1;"/><text x = "540.0" y = "180.0" fill="black">948</text><rect x="0" y="200" width="40" height="40" style="fill:rgb(248, 228, 200);stroke:rgb(20,20,20);stroke-width:1;"/><text text-anchor="middle" x = "20" y = "236" fill="black"  font-weight="bold" font-size="36">F</text><rect x="40" y="200" width="400" height="40" style="fill:rgb(255,255,255);stroke:black;stroke-width:1;"/><text x = "60.0" y = "220.0" fill="black">Tan Ult Vy Lt</text><rect x="440" y="200" width="80" height="40" style="fill:rgb(255,255,255);stroke:black;stroke-width:1;"/><text x = "460.0" y = "220.0" fill="black">635</text><rect x="520" y="200" width="80" height="40" style="fill:rgb(255,255,255);stroke:black;stroke-width:1;"/><text x = "540.0" y = "220.0" fill="black">739</text><rect x="0" y="240" width="40" height="40" style="fill:rgb(255, 233, 173);stroke:rgb(20,20,20);stroke-width:1;"/><text text-anchor="middle" x = "20" y = "276" fill="black"  font-weight="bold" font-size="36">G</text><rect x="40" y="240" width="400" height="40" style="fill:rgb(255,255,255);stroke:black;stroke-width:1;"/><text x = "60.0" y = "260.0" fill="black">Yellow Pale Light</text><rect x="440" y="240" width="80" height="40" style="fill:rgb(255,255,255);stroke:black;stroke-width:1;"/><text x = "460.0" y = "260.0" fill="black">4</text><rect x="520" y="240" width="80" height="40" style="fill:rgb(255,255,255);stroke:black;stroke-width:1;"/><text x = "540.0" y = "260.0" fill="black">745</text><rect x="0" y="280" width="40" height="40" style="fill:rgb(240, 234, 218);stroke:rgb(20,20,20);stroke-width:1;"/><text text-anchor="middle" x = "20" y = "316" fill="black"  font-weight="bold" font-size="36">H</text><rect x="40" y="280" width="400" height="40" style="fill:rgb(255,255,255);stroke:black;stroke-width:1;"/><text x = "60.0" y = "300.0" fill="black">Ecru</text><rect x="440" y="280" width="80" height="40" style="fill:rgb(255,255,255);stroke:black;stroke-width:1;"/><text x = "460.0" y = "300.0" fill="black">487</text><rect x="520" y="280" width="80" height="40" style="fill:rgb(255,255,255);stroke:black;stroke-width:1;"/><text x = "540.0" y = "300.0" fill="black">Ecru</text><rect x="0" y="320" width="40" height="40" style="fill:rgb(245, 236, 203);stroke:rgb(20,20,20);stroke-width:1;"/><text text-anchor="middle" x = "20" y = "356" fill="black"  font-weight="bold" font-size="36">I</text><rect x="40" y="320" width="400" height="40" style="fill:rgb(255,255,255);stroke:black;stroke-width:1;"/><text x = "60.0" y = "340.0" fill="black">Old Gold Vy Lt</text><rect x="440" y="320" width="80" height="40" style="fill:rgb(255,255,255);stroke:black;stroke-width:1;"/><text x = "460.0" y = "340.0" fill="black">466</text><rect x="520" y="320" width="80" height="40" style="fill:rgb(255,255,255);stroke:black;stroke-width:1;"/><text x = "540.0" y = "340.0" fill="black">677</text><rect x="0" y="360" width="40" height="40" style="fill:rgb(242, 227, 206);stroke:rgb(20,20,20);stroke-width:1;"/><text text-anchor="middle" x = "20" y = "396" fill="black"  font-weight="bold" font-size="36">J</text><rect x="40" y="360" width="400" height="40" style="fill:rgb(255,255,255);stroke:black;stroke-width:1;"/><text x = "60.0" y = "380.0" fill="black">Beige Brown Ult Vy Lt</text><rect x="440" y="360" width="80" height="40" style="fill:rgb(255,255,255);stroke:black;stroke-width:1;"/><text x = "460.0" y = "380.0" fill="black">366</text><rect x="520" y="360" width="80" height="40" style="fill:rgb(255,255,255);stroke:black;stroke-width:1;"/><text x = "540.0" y = "380.0" fill="black">543</text><rect x="0" y="400" width="40" height="40" style="fill:rgb(228, 236, 212);stroke:rgb(20,20,20);stroke-width:1;"/><text text-anchor="middle" x = "20" y = "436" fill="black"  font-weight="bold" font-size="36">K</text><rect x="40" y="400" width="400" height="40" style="fill:rgb(255,255,255);stroke:black;stroke-width:1;"/><text x = "60.0" y = "420.0" fill="black">Yellow Green Vy Lt</text><rect x="440" y="400" width="80" height="40" style="fill:rgb(255,255,255);stroke:black;stroke-width:1;"/><text x = "460.0" y = "420.0" fill="black">383</text><rect x="520" y="400" width="80" height="40" style="fill:rgb(255,255,255);stroke:black;stroke-width:1;"/><text x = "540.0" y = "420.0" fill="black">772</text><rect x="0" y="440" width="40" height="40" style="fill:rgb(231, 214, 193);stroke:rgb(20,20,20);stroke-width:1;"/><text text-anchor="middle" x = "20" y = "476" fill="black"  font-weight="bold" font-size="36">L</text><rect x="40" y="440" width="400" height="40" style="fill:rgb(255,255,255);stroke:black;stroke-width:1;"/><text x = "60.0" y = "460.0" fill="black">Yellow Beige Lt</text><rect x="440" y="440" width="80" height="40" style="fill:rgb(255,255,255);stroke:black;stroke-width:1;"/><text x = "460.0" y = "460.0" fill="black">370</text><rect x="520" y="440" width="80" height="40" style="fill:rgb(255,255,255);stroke:black;stroke-width:1;"/><text x = "540.0" y = "460.0" fill="black">3047</text><rect x="0" y="480" width="40" height="40" style="fill:rgb(227, 216, 204);stroke:rgb(20,20,20);stroke-width:1;"/><text text-anchor="middle" x = "20" y = "516" fill="black"  font-weight="bold" font-size="36">M</text><rect x="40" y="480" width="400" height="40" style="fill:rgb(255,255,255);stroke:black;stroke-width:1;"/><text x = "60.0" y = "500.0" fill="black">Mocha Brown Vy Lt</text><rect x="440" y="480" width="80" height="40" style="fill:rgb(255,255,255);stroke:black;stroke-width:1;"/><text x = "460.0" y = "500.0" fill="black">80</text><rect x="520" y="480" width="80" height="40" style="fill:rgb(255,255,255);stroke:black;stroke-width:1;"/><text x = "540.0" y = "500.0" fill="black">3033</text><rect x="0" y="520" width="40" height="40" style="fill:rgb(220, 196, 170);stroke:rgb(20,20,20);stroke-width:1;"/><text text-anchor="middle" x = "20" y = "556" fill="black"  font-weight="bold" font-size="36">N</text><rect x="40" y="520" width="400" height="40" style="fill:rgb(255,255,255);stroke:black;stroke-width:1;"/><text x = "60.0" y = "540.0" fill="black">Drab Brown V Lt</text><rect x="440" y="520" width="80" height="40" style="fill:rgb(255,255,255);stroke:black;stroke-width:1;"/><text x = "460.0" y = "540.0" fill="black">286</text><rect x="520" y="520" width="80" height="40" style="fill:rgb(255,255,255);stroke:black;stroke-width:1;"/><text x = "540.0" y = "540.0" fill="black">613</text><rect x="0" y="560" width="40" height="40" style="fill:rgb(185, 215, 192);stroke:rgb(20,20,20);stroke-width:1;"/><text text-anchor="middle" x = "20" y = "596" fill="black"  font-weight="bold" font-size="36">O</text><rect x="40" y="560" width="400" height="40" style="fill:rgb(255,255,255);stroke:black;stroke-width:1;"/><text x = "60.0" y = "580.0" fill="black">Jade Ultra Vy Lt</text><rect x="440" y="560" width="80" height="40" style="fill:rgb(255,255,255);stroke:black;stroke-width:1;"/><text x = "460.0" y = "580.0" fill="black">460</text><rect x="520" y="560" width="80" height="40" style="fill:rgb(255,255,255);stroke:black;stroke-width:1;"/><text x = "540.0" y = "580.0" fill="black">966</text><rect x="0" y="600" width="40" height="40" style="fill:rgb(188, 180, 172);stroke:rgb(20,20,20);stroke-width:1;"/><text text-anchor="middle" x = "20" y = "636" fill="black"  font-weight="bold" font-size="36">P</text><rect x="40" y="600" width="400" height="40" style="fill:rgb(255,255,255);stroke:black;stroke-width:1;"/><text x = "60.0" y = "620.0" fill="black">Beaver Gray Lt</text><rect x="440" y="600" width="80" height="40" style="fill:rgb(255,255,255);stroke:black;stroke-width:1;"/><text x = "460.0" y = "620.0" fill="black">172</text><rect x="520" y="600" width="80" height="40" style="fill:rgb(255,255,255);stroke:black;stroke-width:1;"/><text x = "540.0" y = "620.0" fill="black">648</text><rect x="0" y="640" width="40" height="40" style="fill:rgb(101, 127, 127);stroke:rgb(20,20,20);stroke-width:1;"/><text text-anchor="middle" x = "20" y = "676" fill="white"  font-weight="bold" font-size="36">Q</text><rect x="40" y="640" width="400" height="40" style="fill:rgb(255,255,255);stroke:black;stroke-width:1;"/><text x = "60.0" y = "660.0" fill="black">Gray Green Dark</text><rect x="440" y="640" width="80" height="40" style="fill:rgb(255,255,255);stroke:black;stroke-width:1;"/><text x = "460.0" y = "660.0" fill="black">290</text><rect x="520" y="640" width="80" height="40" style="fill:rgb(255,255,255);stroke:black;stroke-width:1;"/><text x = "540.0" y = "660.0" fill="black">3768</text><rect x="0" y="680" width="40" height="40" style="fill:rgb(57, 105, 135);stroke:rgb(20,20,20);stroke-width:1;"/><text text-anchor="middle" x = "20" y = "716" fill="white"  font-weight="bold" font-size="36">R</text><rect x="40" y="680" width="400" height="40" style="fill:rgb(255,255,255);stroke:black;stroke-width:1;"/><text x = "60.0" y = "700.0" fill="black">Blue Very Dark</text><rect x="440" y="680" width="80" height="40" style="fill:rgb(255,255,255);stroke:black;stroke-width:1;"/><text x = "460.0" y = "700.0" fill="black">625</text><rect x="520" y="680" width="80" height="40" style="fill:rgb(255,255,255);stroke:black;stroke-width:1;"/><text x = "540.0" y = "700.0" fill="black">824</text><rect x="0" y="720" width="40" height="40" style="fill:rgb(56, 76, 94);stroke:rgb(20,20,20);stroke-width:1;"/><text text-anchor="middle" x = "20" y = "756" fill="white"  font-weight="bold" font-size="36">S</text><rect x="40" y="720" width="400" height="40" style="fill:rgb(255,255,255);stroke:black;stroke-width:1;"/><text x = "60.0" y = "740.0" fill="black">Antique Blue Very Dk</text><rect x="440" y="720" width="80" height="40" style="fill:rgb(255,255,255);stroke:black;stroke-width:1;"/><text x = "460.0" y = "740.0" fill="black">423</text><rect x="520" y="720" width="80" height="40" style="fill:rgb(255,255,255);stroke:black;stroke-width:1;"/><text x = "540.0" y = "740.0" fill="black">3750</text><rect x="0" y="760" width="40" height="40" style="fill:rgb(33, 48, 99);stroke:rgb(20,20,20);stroke-width:1;"/><text text-anchor="middle" x = "20" y = "796" fill="white"  font-weight="bold" font-size="36">T</text><rect x="40" y="760" width="400" height="40" style="fill:rgb(255,255,255);stroke:black;stroke-width:1;"/><text x = "60.0" y = "780.0" fill="black">Navy Blue Dark</text><rect x="440" y="760" width="80" height="40" style="fill:rgb(255,255,255);stroke:black;stroke-width:1;"/><text x = "460.0" y = "780.0" fill="black">446</text><rect x="520" y="760" width="80" height="40" style="fill:rgb(255,255,255);stroke:black;stroke-width:1;"/><text x = "540.0" y = "780.0" fill="black">823</text></svg>